<svg xmlns="http://www.w3.org/2000/svg" xmlns:xlink="http://www.w3.org/1999/xlink" width="500" zoomAndPan="magnify" viewBox="0 0 375 374.999991" height="500" preserveAspectRatio="xMidYMid meet" version="1.0"><defs><g/></defs><path fill="#36506c" d="M 89.0625 164.171875 C 98.679688 161.335938 119.347656 158.195312 127.371094 179.972656 C 129.554688 185.902344 130.171875 192.289062 129.574219 198.582031 C 128.730469 207.457031 125.640625 220.976562 115.441406 232.847656 C 108.910156 240.453125 98.539062 243.445312 89.054688 240.214844 C 88.375 239.984375 87.695312 239.730469 87.015625 239.460938 C 85.078125 238.679688 82.902344 238.691406 80.964844 239.46875 C 80.332031 239.71875 79.695312 239.957031 79.058594 240.175781 C 69.609375 243.425781 59.1875 240.523438 52.652344 232.953125 C 42.410156 221.09375 39.289062 207.570312 38.429688 198.667969 C 37.820312 192.34375 38.433594 185.933594 40.628906 179.972656 C 46.859375 163.058594 61.730469 159.160156 78.988281 164.183594 C 83.503906 165.5 89.632812 164.085938 89.0625 164.171875 " fill-opacity="1" fill-rule="nonzero"/><path fill="#36506c" d="M 105.46875 132.394531 C 87.136719 131.734375 81.792969 144.570312 80.289062 150.667969 C 77.40625 147.359375 73.34375 144.386719 67.917969 142.507812 C 66.875 142.148438 65.738281 142.703125 65.375 143.753906 C 65.011719 144.796875 65.570312 145.9375 66.613281 146.300781 C 75.269531 149.296875 79.835938 155.414062 81.40625 160.59375 C 82.054688 160.683594 82.773438 160.734375 83.554688 160.734375 C 84.28125 160.734375 84.960938 160.699219 85.570312 160.640625 C 85.109375 158.707031 84.289062 156.625 83.085938 154.5625 C 92.132812 155.957031 98.640625 151.347656 101.191406 148.363281 C 107.46875 141.011719 105.46875 132.394531 105.46875 132.394531 " fill-opacity="1" fill-rule="nonzero"/><g fill="#233142" fill-opacity="1"><g transform="translate(138.893931, 204.404184)"><g><path d="M 33.25 -16.125 C 33.25 -12.34375 32.578125 -9.171875 31.234375 -6.609375 C 29.890625 -4.046875 27.921875 -2.171875 25.328125 -0.984375 L 33.078125 7.65625 L 24.328125 7.65625 L 18.4375 0.4375 L 17.9375 0.4375 C 13.007812 0.4375 9.222656 -0.988281 6.578125 -3.84375 C 3.941406 -6.707031 2.625 -10.816406 2.625 -16.171875 C 2.625 -21.523438 3.945312 -25.613281 6.59375 -28.4375 C 9.238281 -31.257812 13.035156 -32.671875 17.984375 -32.671875 C 22.921875 -32.671875 26.695312 -31.25 29.3125 -28.40625 C 31.9375 -25.5625 33.25 -21.46875 33.25 -16.125 Z M 9.765625 -16.125 C 9.765625 -12.53125 10.445312 -9.820312 11.8125 -8 C 13.175781 -6.1875 15.21875 -5.28125 17.9375 -5.28125 C 23.375 -5.28125 26.09375 -8.894531 26.09375 -16.125 C 26.09375 -23.375 23.390625 -27 17.984375 -27 C 15.265625 -27 13.210938 -26.082031 11.828125 -24.25 C 10.453125 -22.425781 9.765625 -19.71875 9.765625 -16.125 Z M 9.765625 -16.125 "/></g></g></g><g fill="#233142" fill-opacity="1"><g transform="translate(174.760194, 204.404184)"><g><path d="M 20.953125 0 L 20.046875 -3.140625 L 19.6875 -3.140625 C 18.96875 -2.003906 17.945312 -1.125 16.625 -0.5 C 15.3125 0.125 13.8125 0.4375 12.125 0.4375 C 9.238281 0.4375 7.0625 -0.332031 5.59375 -1.875 C 4.125 -3.425781 3.390625 -5.65625 3.390625 -8.5625 L 3.390625 -24.59375 L 10.09375 -24.59375 L 10.09375 -10.234375 C 10.09375 -8.453125 10.40625 -7.117188 11.03125 -6.234375 C 11.664062 -5.347656 12.675781 -4.90625 14.0625 -4.90625 C 15.9375 -4.90625 17.289062 -5.53125 18.125 -6.78125 C 18.96875 -8.039062 19.390625 -10.125 19.390625 -13.03125 L 19.390625 -24.59375 L 26.09375 -24.59375 L 26.09375 0 Z M 20.953125 0 "/></g></g></g><g fill="#233142" fill-opacity="1"><g transform="translate(204.377366, 204.404184)"><g><path d="M 3.234375 -30.953125 C 3.234375 -33.140625 4.453125 -34.234375 6.890625 -34.234375 C 9.328125 -34.234375 10.546875 -33.140625 10.546875 -30.953125 C 10.546875 -29.910156 10.238281 -29.097656 9.625 -28.515625 C 9.019531 -27.941406 8.109375 -27.65625 6.890625 -27.65625 C 4.453125 -27.65625 3.234375 -28.753906 3.234375 -30.953125 Z M 10.234375 0 L 3.515625 0 L 3.515625 -24.59375 L 10.234375 -24.59375 Z M 10.234375 0 "/></g></g></g><g fill="#233142" fill-opacity="1"><g transform="translate(218.129774, 204.404184)"><g><path d="M 20.640625 0 L 1.203125 0 L 1.203125 -3.953125 L 12.609375 -19.46875 L 1.890625 -19.46875 L 1.890625 -24.59375 L 20.25 -24.59375 L 20.25 -20.25 L 9.15625 -5.125 L 20.640625 -5.125 Z M 20.640625 0 "/></g></g></g><g fill="#233142" fill-opacity="1"><g transform="translate(240.111619, 204.404184)"><g><path d="M 8.875 -12.34375 C 8.875 -9.90625 9.269531 -8.0625 10.0625 -6.8125 C 10.863281 -5.570312 12.164062 -4.953125 13.96875 -4.953125 C 15.757812 -4.953125 17.046875 -5.570312 17.828125 -6.8125 C 18.617188 -8.050781 19.015625 -9.894531 19.015625 -12.34375 C 19.015625 -14.78125 18.617188 -16.609375 17.828125 -17.828125 C 17.035156 -19.046875 15.734375 -19.65625 13.921875 -19.65625 C 12.140625 -19.65625 10.851562 -19.046875 10.0625 -17.828125 C 9.269531 -16.617188 8.875 -14.789062 8.875 -12.34375 Z M 25.875 -12.34375 C 25.875 -8.34375 24.816406 -5.210938 22.703125 -2.953125 C 20.585938 -0.691406 17.648438 0.4375 13.890625 0.4375 C 11.523438 0.4375 9.4375 -0.078125 7.625 -1.109375 C 5.820312 -2.140625 4.4375 -3.625 3.46875 -5.5625 C 2.507812 -7.5 2.03125 -9.757812 2.03125 -12.34375 C 2.03125 -16.363281 3.078125 -19.488281 5.171875 -21.71875 C 7.265625 -23.945312 10.210938 -25.0625 14.015625 -25.0625 C 16.378906 -25.0625 18.460938 -24.546875 20.265625 -23.515625 C 22.066406 -22.492188 23.453125 -21.019531 24.421875 -19.09375 C 25.390625 -17.175781 25.875 -14.925781 25.875 -12.34375 Z M 25.875 -12.34375 "/></g></g></g><g fill="#233142" fill-opacity="1"><g transform="translate(268.012492, 204.404184)"><g><path d="M 17.03125 0.4375 C 14.144531 0.4375 11.878906 -0.609375 10.234375 -2.703125 L 9.875 -2.703125 C 10.113281 -0.648438 10.234375 0.535156 10.234375 0.859375 L 10.234375 10.828125 L 3.515625 10.828125 L 3.515625 -24.59375 L 8.984375 -24.59375 L 9.921875 -21.40625 L 10.234375 -21.40625 C 11.796875 -23.84375 14.117188 -25.0625 17.203125 -25.0625 C 20.109375 -25.0625 22.378906 -23.9375 24.015625 -21.6875 C 25.660156 -19.445312 26.484375 -16.332031 26.484375 -12.34375 C 26.484375 -9.71875 26.097656 -7.4375 25.328125 -5.5 C 24.566406 -3.5625 23.472656 -2.085938 22.046875 -1.078125 C 20.617188 -0.0664062 18.945312 0.4375 17.03125 0.4375 Z M 15.046875 -19.6875 C 13.390625 -19.6875 12.179688 -19.175781 11.421875 -18.15625 C 10.660156 -17.144531 10.265625 -15.460938 10.234375 -13.109375 L 10.234375 -12.390625 C 10.234375 -9.742188 10.625 -7.847656 11.40625 -6.703125 C 12.1875 -5.566406 13.429688 -5 15.140625 -5 C 18.148438 -5 19.65625 -7.476562 19.65625 -12.4375 C 19.65625 -14.851562 19.28125 -16.664062 18.53125 -17.875 C 17.789062 -19.082031 16.628906 -19.6875 15.046875 -19.6875 Z M 15.046875 -19.6875 "/></g></g></g><g fill="#233142" fill-opacity="1"><g transform="translate(296.529472, 204.404184)"><g><path d="M 3.234375 -30.953125 C 3.234375 -33.140625 4.453125 -34.234375 6.890625 -34.234375 C 9.328125 -34.234375 10.546875 -33.140625 10.546875 -30.953125 C 10.546875 -29.910156 10.238281 -29.097656 9.625 -28.515625 C 9.019531 -27.941406 8.109375 -27.65625 6.890625 -27.65625 C 4.453125 -27.65625 3.234375 -28.753906 3.234375 -30.953125 Z M 10.234375 0 L 3.515625 0 L 3.515625 -24.59375 L 10.234375 -24.59375 Z M 10.234375 0 "/></g></g></g><g fill="#233142" fill-opacity="1"><g transform="translate(310.28188, 204.404184)"><g><path d="M 19.140625 0 L 17.84375 -3.34375 L 17.671875 -3.34375 C 16.535156 -1.914062 15.367188 -0.925781 14.171875 -0.375 C 12.984375 0.164062 11.425781 0.4375 9.5 0.4375 C 7.144531 0.4375 5.285156 -0.234375 3.921875 -1.578125 C 2.566406 -2.929688 1.890625 -4.851562 1.890625 -7.34375 C 1.890625 -9.957031 2.800781 -11.882812 4.625 -13.125 C 6.457031 -14.363281 9.210938 -15.050781 12.890625 -15.1875 L 17.15625 -15.3125 L 17.15625 -16.390625 C 17.15625 -18.890625 15.878906 -20.140625 13.328125 -20.140625 C 11.367188 -20.140625 9.0625 -19.539062 6.40625 -18.34375 L 4.1875 -22.890625 C 7.007812 -24.367188 10.144531 -25.109375 13.59375 -25.109375 C 16.894531 -25.109375 19.425781 -24.390625 21.1875 -22.953125 C 22.945312 -21.515625 23.828125 -19.328125 23.828125 -16.390625 L 23.828125 0 Z M 17.15625 -11.390625 L 14.5625 -11.3125 C 12.613281 -11.25 11.160156 -10.894531 10.203125 -10.25 C 9.253906 -9.601562 8.78125 -8.625 8.78125 -7.3125 C 8.78125 -5.414062 9.863281 -4.46875 12.03125 -4.46875 C 13.59375 -4.46875 14.835938 -4.914062 15.765625 -5.8125 C 16.691406 -6.707031 17.15625 -7.894531 17.15625 -9.375 Z M 17.15625 -11.390625 "/></g></g></g></svg>