<svg xmlns="http://www.w3.org/2000/svg" xmlns:xlink="http://www.w3.org/1999/xlink" width="500" zoomAndPan="magnify" viewBox="0 0 375 374.999991" height="500" preserveAspectRatio="xMidYMid meet" version="1.0"><defs><g/></defs><path fill="#36506c" d="M 197.195312 112.570312 C 215.730469 107.109375 255.566406 101.058594 271.023438 143.007812 C 275.238281 154.429688 276.429688 166.730469 275.273438 178.851562 C 273.648438 195.945312 267.695312 221.984375 248.035156 244.851562 C 235.445312 259.5 215.460938 265.265625 197.179688 259.039062 C 195.867188 258.597656 194.554688 258.113281 193.25 257.585938 C 189.511719 256.085938 185.320312 256.109375 181.589844 257.605469 C 180.367188 258.089844 179.136719 258.546875 177.914062 258.964844 C 159.699219 265.222656 139.613281 259.640625 127.019531 245.058594 C 107.277344 222.214844 101.265625 196.160156 99.609375 179.015625 C 98.4375 166.835938 99.617188 154.488281 103.847656 143.007812 C 115.855469 110.425781 144.519531 102.914062 177.777344 112.59375 C 186.476562 115.132812 198.296875 112.40625 197.195312 112.570312 " fill-opacity="1" fill-rule="nonzero"/><path fill="#36506c" d="M 228.8125 51.363281 C 193.480469 50.089844 183.179688 74.816406 180.285156 86.558594 C 174.726562 80.1875 166.902344 74.460938 156.445312 70.839844 C 154.433594 70.152344 152.238281 71.21875 151.539062 73.238281 C 150.84375 75.25 151.917969 77.453125 153.925781 78.148438 C 170.609375 83.921875 179.40625 95.703125 182.433594 105.679688 C 183.6875 105.855469 185.074219 105.953125 186.574219 105.953125 C 187.976562 105.953125 189.289062 105.878906 190.464844 105.769531 C 189.578125 102.042969 187.996094 98.035156 185.671875 94.0625 C 203.109375 96.746094 215.65625 87.871094 220.570312 82.125 C 232.667969 67.960938 228.8125 51.363281 228.8125 51.363281 " fill-opacity="1" fill-rule="nonzero"/><g fill="#233142" fill-opacity="1"><g transform="translate(77.334169, 314.198183)"><g><path d="M 36.890625 -17.890625 C 36.890625 -13.691406 36.144531 -10.171875 34.65625 -7.328125 C 33.164062 -4.492188 30.976562 -2.414062 28.09375 -1.09375 L 36.6875 8.5 L 27 8.5 L 20.453125 0.484375 L 19.890625 0.484375 C 14.421875 0.484375 10.222656 -1.097656 7.296875 -4.265625 C 4.367188 -7.441406 2.90625 -12 2.90625 -17.9375 C 2.90625 -23.882812 4.375 -28.421875 7.3125 -31.546875 C 10.25 -34.679688 14.460938 -36.25 19.953125 -36.25 C 25.429688 -36.25 29.625 -34.671875 32.53125 -31.515625 C 35.4375 -28.359375 36.890625 -23.816406 36.890625 -17.890625 Z M 10.84375 -17.890625 C 10.84375 -13.910156 11.597656 -10.910156 13.109375 -8.890625 C 14.617188 -6.867188 16.878906 -5.859375 19.890625 -5.859375 C 25.929688 -5.859375 28.953125 -9.867188 28.953125 -17.890625 C 28.953125 -25.929688 25.953125 -29.953125 19.953125 -29.953125 C 16.941406 -29.953125 14.671875 -28.9375 13.140625 -26.90625 C 11.609375 -24.882812 10.84375 -21.878906 10.84375 -17.890625 Z M 10.84375 -17.890625 "/></g></g></g><g fill="#233142" fill-opacity="1"><g transform="translate(117.122871, 314.198183)"><g><path d="M 23.25 0 L 22.234375 -3.484375 L 21.84375 -3.484375 C 21.050781 -2.222656 19.921875 -1.242188 18.453125 -0.546875 C 16.992188 0.140625 15.328125 0.484375 13.453125 0.484375 C 10.242188 0.484375 7.828125 -0.367188 6.203125 -2.078125 C 4.578125 -3.796875 3.765625 -6.269531 3.765625 -9.5 L 3.765625 -27.296875 L 11.203125 -27.296875 L 11.203125 -11.359375 C 11.203125 -9.390625 11.550781 -7.910156 12.25 -6.921875 C 12.957031 -5.929688 14.070312 -5.4375 15.59375 -5.4375 C 17.675781 -5.4375 19.179688 -6.132812 20.109375 -7.53125 C 21.046875 -8.925781 21.515625 -11.234375 21.515625 -14.453125 L 21.515625 -27.296875 L 28.953125 -27.296875 L 28.953125 0 Z M 23.25 0 "/></g></g></g><g fill="#233142" fill-opacity="1"><g transform="translate(149.979062, 314.198183)"><g><path d="M 3.59375 -34.34375 C 3.59375 -36.769531 4.941406 -37.984375 7.640625 -37.984375 C 10.335938 -37.984375 11.6875 -36.769531 11.6875 -34.34375 C 11.6875 -33.195312 11.347656 -32.300781 10.671875 -31.65625 C 10.003906 -31.007812 8.992188 -30.6875 7.640625 -30.6875 C 4.941406 -30.6875 3.59375 -31.90625 3.59375 -34.34375 Z M 11.359375 0 L 3.90625 0 L 3.90625 -27.296875 L 11.359375 -27.296875 Z M 11.359375 0 "/></g></g></g><g fill="#233142" fill-opacity="1"><g transform="translate(165.235466, 314.198183)"><g><path d="M 22.90625 0 L 1.34375 0 L 1.34375 -4.390625 L 13.984375 -21.609375 L 2.09375 -21.609375 L 2.09375 -27.296875 L 22.46875 -27.296875 L 22.46875 -22.46875 L 10.15625 -5.6875 L 22.90625 -5.6875 Z M 22.90625 0 "/></g></g></g><g fill="#233142" fill-opacity="1"><g transform="translate(189.621301, 314.198183)"><g><path d="M 9.84375 -13.703125 C 9.84375 -10.992188 10.285156 -8.945312 11.171875 -7.5625 C 12.054688 -6.1875 13.5 -5.5 15.5 -5.5 C 17.488281 -5.5 18.914062 -6.1875 19.78125 -7.5625 C 20.65625 -8.9375 21.09375 -10.984375 21.09375 -13.703125 C 21.09375 -16.398438 20.648438 -18.421875 19.765625 -19.765625 C 18.890625 -21.117188 17.453125 -21.796875 15.453125 -21.796875 C 13.460938 -21.796875 12.03125 -21.125 11.15625 -19.78125 C 10.28125 -18.445312 9.84375 -16.421875 9.84375 -13.703125 Z M 28.71875 -13.703125 C 28.71875 -9.253906 27.546875 -5.773438 25.203125 -3.265625 C 22.859375 -0.765625 19.59375 0.484375 15.40625 0.484375 C 12.78125 0.484375 10.46875 -0.0859375 8.46875 -1.234375 C 6.46875 -2.378906 4.929688 -4.023438 3.859375 -6.171875 C 2.785156 -8.328125 2.25 -10.835938 2.25 -13.703125 C 2.25 -18.160156 3.410156 -21.625 5.734375 -24.09375 C 8.066406 -26.570312 11.335938 -27.8125 15.546875 -27.8125 C 18.171875 -27.8125 20.484375 -27.238281 22.484375 -26.09375 C 24.484375 -24.957031 26.019531 -23.320312 27.09375 -21.1875 C 28.175781 -19.0625 28.71875 -16.566406 28.71875 -13.703125 Z M 28.71875 -13.703125 "/></g></g></g><g fill="#233142" fill-opacity="1"><g transform="translate(220.573493, 314.198183)"><g><path d="M 18.890625 0.484375 C 15.691406 0.484375 13.179688 -0.675781 11.359375 -3 L 10.96875 -3 C 11.226562 -0.71875 11.359375 0.597656 11.359375 0.953125 L 11.359375 12.015625 L 3.90625 12.015625 L 3.90625 -27.296875 L 9.96875 -27.296875 L 11.015625 -23.75 L 11.359375 -23.75 C 13.097656 -26.457031 15.675781 -27.8125 19.09375 -27.8125 C 22.3125 -27.8125 24.832031 -26.566406 26.65625 -24.078125 C 28.476562 -21.585938 29.390625 -18.128906 29.390625 -13.703125 C 29.390625 -10.785156 28.960938 -8.25 28.109375 -6.09375 C 27.253906 -3.945312 26.035156 -2.3125 24.453125 -1.1875 C 22.878906 -0.0703125 21.023438 0.484375 18.890625 0.484375 Z M 16.703125 -21.84375 C 14.859375 -21.84375 13.515625 -21.273438 12.671875 -20.140625 C 11.828125 -19.015625 11.390625 -17.148438 11.359375 -14.546875 L 11.359375 -13.75 C 11.359375 -10.8125 11.789062 -8.707031 12.65625 -7.4375 C 13.53125 -6.175781 14.910156 -5.546875 16.796875 -5.546875 C 20.128906 -5.546875 21.796875 -8.296875 21.796875 -13.796875 C 21.796875 -16.484375 21.382812 -18.492188 20.5625 -19.828125 C 19.75 -21.171875 18.460938 -21.84375 16.703125 -21.84375 Z M 16.703125 -21.84375 "/></g></g></g><g fill="#233142" fill-opacity="1"><g transform="translate(252.209172, 314.198183)"><g><path d="M 3.59375 -34.34375 C 3.59375 -36.769531 4.941406 -37.984375 7.640625 -37.984375 C 10.335938 -37.984375 11.6875 -36.769531 11.6875 -34.34375 C 11.6875 -33.195312 11.347656 -32.300781 10.671875 -31.65625 C 10.003906 -31.007812 8.992188 -30.6875 7.640625 -30.6875 C 4.941406 -30.6875 3.59375 -31.90625 3.59375 -34.34375 Z M 11.359375 0 L 3.90625 0 L 3.90625 -27.296875 L 11.359375 -27.296875 Z M 11.359375 0 "/></g></g></g><g fill="#233142" fill-opacity="1"><g transform="translate(267.465576, 314.198183)"><g><path d="M 21.234375 0 L 19.796875 -3.71875 L 19.609375 -3.71875 C 18.347656 -2.132812 17.054688 -1.035156 15.734375 -0.421875 C 14.410156 0.179688 12.679688 0.484375 10.546875 0.484375 C 7.921875 0.484375 5.851562 -0.257812 4.34375 -1.75 C 2.84375 -3.25 2.09375 -5.382812 2.09375 -8.15625 C 2.09375 -11.050781 3.101562 -13.1875 5.125 -14.5625 C 7.15625 -15.9375 10.21875 -16.695312 14.3125 -16.84375 L 19.046875 -17 L 19.046875 -18.1875 C 19.046875 -20.957031 17.628906 -22.34375 14.796875 -22.34375 C 12.617188 -22.34375 10.054688 -21.679688 7.109375 -20.359375 L 4.640625 -25.390625 C 7.773438 -27.035156 11.257812 -27.859375 15.09375 -27.859375 C 18.75 -27.859375 21.550781 -27.0625 23.5 -25.46875 C 25.457031 -23.875 26.4375 -21.445312 26.4375 -18.1875 L 26.4375 0 Z M 19.046875 -12.640625 L 16.15625 -12.546875 C 14 -12.484375 12.390625 -12.09375 11.328125 -11.375 C 10.265625 -10.65625 9.734375 -9.566406 9.734375 -8.109375 C 9.734375 -6.003906 10.941406 -4.953125 13.359375 -4.953125 C 15.078125 -4.953125 16.453125 -5.445312 17.484375 -6.4375 C 18.523438 -7.4375 19.046875 -8.757812 19.046875 -10.40625 Z M 19.046875 -12.640625 "/></g></g></g></svg>