<svg xmlns="http://www.w3.org/2000/svg" xmlns:xlink="http://www.w3.org/1999/xlink" width="500" zoomAndPan="magnify" viewBox="0 0 375 374.999991" height="500" preserveAspectRatio="xMidYMid meet" version="1.0"><path fill="#36506c" d="M 195.796875 148.449219 C 211.851562 143.710938 246.351562 138.460938 259.742188 174.859375 C 263.394531 184.765625 264.421875 195.4375 263.421875 205.953125 C 262.015625 220.785156 256.859375 243.375 239.832031 263.214844 C 228.925781 275.925781 211.617188 280.925781 195.785156 275.527344 C 194.648438 275.140625 193.511719 274.722656 192.382812 274.265625 C 189.140625 272.960938 185.511719 272.984375 182.28125 274.28125 C 181.222656 274.699219 180.15625 275.097656 179.097656 275.460938 C 163.320312 280.890625 145.925781 276.046875 135.015625 263.394531 C 117.917969 243.574219 112.710938 220.972656 111.277344 206.097656 C 110.257812 195.53125 111.28125 184.816406 114.949219 174.859375 C 125.347656 146.589844 150.171875 140.070312 178.976562 148.46875 C 186.511719 150.671875 196.75 148.308594 195.796875 148.449219 " fill-opacity="1" fill-rule="nonzero"/><path fill="#36506c" d="M 223.179688 95.347656 C 192.578125 94.242188 183.65625 115.691406 181.152344 125.878906 C 176.335938 120.351562 169.558594 115.386719 160.5 112.246094 C 158.761719 111.648438 156.855469 112.574219 156.253906 114.324219 C 155.648438 116.070312 156.582031 117.980469 158.320312 118.585938 C 172.769531 123.59375 180.390625 133.816406 183.011719 142.472656 C 184.097656 142.621094 185.300781 142.707031 186.597656 142.707031 C 187.8125 142.707031 188.949219 142.644531 189.964844 142.550781 C 189.199219 139.316406 187.828125 135.839844 185.816406 132.390625 C 200.917969 134.722656 211.789062 127.019531 216.042969 122.035156 C 226.519531 109.746094 223.179688 95.347656 223.179688 95.347656 " fill-opacity="1" fill-rule="nonzero"/></svg>